<svg version="1.1" id="Capa_1" xmlns="http://www.w3.org/2000/svg" xmlns:xlink="http://www.w3.org/1999/xlink" x="0px" y="0px"
 viewBox="0 0 200 200" style="enable-background:new 0 0 200 200;" xml:space="preserve">
<style type="text/css">
.st0{fill:#FFED00;}
</style>
<g>
<path class="st0" d="M0,200C0,133.33,0,66.67,0,0c66.67,0,133.33,0,200,0c0,66.67,0,133.33,0,200C133.33,200,66.67,200,0,200z
 M178.88,105.91c-2.72-4.79-6.13-8.8-10.92-11.49c-4.19-2.36-8.75-3.32-13.52-3.56c-4.56-0.23-9.03,0.19-13.34,1.71
c-6.91,2.44-12.02,6.88-14.81,13.76c-1.63,4.01-2,8.19-1.61,12.49c0.41,4.41,1.66,8.51,4.19,12.19c2.88,4.2,6.77,7.29,11.24,9.55
c4.61,2.34,9.38,4.36,14.09,6.51c2.62,1.2,5.26,2.36,7.58,4.12c2.68,2.04,3.97,4.71,3.61,8.09c-0.36,3.38-2.4,5.5-5.32,6.89
c-1.82,0.87-3.77,1.26-5.77,1.39c-4.25,0.29-8.28-0.43-11.96-2.68c-3.23-1.97-5.6-4.77-7.57-7.93c-0.39-0.62-0.67-0.67-1.29-0.3
c-4.56,2.69-9.13,5.35-13.73,7.97c-0.72,0.41-0.76,0.72-0.38,1.39c4.1,7.45,10.13,12.67,18.06,15.69
c6.36,2.41,12.95,3.04,19.7,2.53c4.17-0.31,8.21-1.18,12.06-2.85c6.41-2.79,11.18-7.22,13.63-13.89c1.49-4.05,1.81-8.24,1.43-12.53
c-0.42-4.68-1.8-8.99-4.63-12.79c-2.95-3.95-6.79-6.89-11.12-9.09c-4.93-2.51-10.02-4.7-15.04-7.02c-2.57-1.18-5.12-2.37-7.35-4.17
c-3.85-3.11-3.87-9.81-0.1-12.66c2.68-2.03,5.7-2.25,8.86-1.71c3.32,0.57,5.73,2.51,7.63,5.18c0.59,0.83,1.12,1.7,1.72,2.62
C169.11,112.18,173.97,109.06,178.88,105.91z M52.62,167.1c0.02,0.16,0.01,0.22,0.03,0.26c3.19,6.62,7.94,11.68,14.8,14.5
c7.74,3.18,15.72,3.33,23.7,1.13c6.95-1.91,12.07-6.15,15.06-12.8c2.03-4.53,2.68-9.35,2.69-14.26c0.02-21.03,0.01-42.07,0.01-63.1
c0-0.29-0.03-0.59-0.05-0.87c-6.33,0-12.56,0-18.88,0c0,0.5,0,0.94,0,1.38c0,20.51,0.01,41.01-0.02,61.52
c0,1.88-0.12,3.78-0.44,5.62c-0.53,3.04-2.03,5.45-5.17,6.44c-0.84,0.26-1.72,0.43-2.6,0.52c-3.67,0.4-6.98-0.38-9.51-3.24
c-1.02-1.15-1.89-2.46-2.77-3.73c-0.56-0.81-1.03-1.7-1.57-2.61C62.78,160.95,57.71,164.02,52.62,167.1z"/>
<path d="M178.88,105.91c-4.9,3.15-9.76,6.27-14.67,9.42c-0.6-0.92-1.13-1.79-1.72-2.62c-1.9-2.67-4.31-4.61-7.63-5.18
c-3.16-0.54-6.18-0.32-8.86,1.71c-3.77,2.86-3.75,9.56,0.1,12.66c2.23,1.8,4.78,2.98,7.35,4.17c5.03,2.31,10.11,4.51,15.04,7.02
c4.33,2.2,8.17,5.14,11.12,9.09c2.83,3.8,4.21,8.11,4.63,12.79c0.38,4.28,0.06,8.48-1.43,12.53c-2.45,6.67-7.22,11.1-13.63,13.89
c-3.85,1.67-7.88,2.54-12.06,2.85c-6.74,0.51-13.34-0.12-19.7-2.53c-7.93-3.01-13.97-8.24-18.06-15.69
c-0.37-0.68-0.33-0.99,0.38-1.39c4.6-2.62,9.17-5.29,13.73-7.97c0.62-0.37,0.9-0.32,1.29,0.3c1.97,3.16,4.35,5.96,7.57,7.93
c3.68,2.25,7.7,2.96,11.96,2.68c2.01-0.14,3.95-0.52,5.77-1.39c2.93-1.4,4.96-3.51,5.32-6.89c0.36-3.39-0.93-6.06-3.61-8.09
c-2.32-1.76-4.96-2.92-7.58-4.12c-4.71-2.15-9.48-4.17-14.09-6.51c-4.47-2.27-8.35-5.36-11.24-9.55
c-2.53-3.67-3.78-7.77-4.19-12.19c-0.4-4.29-0.02-8.48,1.61-12.49c2.79-6.88,7.9-11.31,14.81-13.76c4.32-1.53,8.78-1.95,13.34-1.71
c4.77,0.24,9.33,1.2,13.52,3.56C172.74,97.11,176.15,101.12,178.88,105.91z"/>
<path d="M52.62,167.1c5.09-3.08,10.15-6.15,15.28-9.25c0.54,0.91,1,1.79,1.57,2.61c0.88,1.27,1.75,2.57,2.77,3.73
c2.54,2.86,5.85,3.64,9.51,3.24c0.88-0.09,1.76-0.26,2.6-0.52c3.14-0.99,4.64-3.4,5.17-6.44c0.32-1.84,0.44-3.75,0.44-5.62
c0.03-20.51,0.02-41.01,0.02-61.52c0-0.44,0-0.88,0-1.38c6.32,0,12.55,0,18.88,0c0.02,0.29,0.05,0.58,0.05,0.87
c0,21.03,0.01,42.07-0.01,63.1c-0.01,4.91-0.66,9.73-2.69,14.26c-2.98,6.65-8.11,10.89-15.06,12.8c-7.99,2.2-15.96,2.05-23.7-1.13
c-6.86-2.82-11.62-7.88-14.8-14.5C52.63,167.31,52.64,167.25,52.62,167.1z"/>
</g>
</svg>